<svg stroke-width=".501" stroke-linejoin="bevel" fill-rule="evenodd" overflow="visible" width="420" height="220" viewBox="0.002 0 314.997 180" xmlns="http://www.w3.org/2000/svg"><g stroke-miterlimit="79.84" fill="none" stroke-linecap="round" font-size="16" font-family="Times New Roman"><path d="M70.281 64.753c-7.559-3.898-13.305-7.468-17.27-13.745-3.015-4.771-4.401-11.15-1.758-17.197 6.5-13.11 21.703-18.729 32.06-21.814 12.616-3.758 31.067-5.838 45.72-5.068 16.297.858 32.044 3.651 46.367 10.919 6.467 3.287 13.615 8.858 15.614 13.744m-29.358 37.623c-12.021 3.156-26.455 5.138-39.564 5.138-12.449 0-22.805-.991-35.894-3.929" stroke="#000" stroke-width="3.657"/><path d="M196.656 84.388c-8.586-.441-15.202-1.082-24.33-6.276-10.627-6.529-13.297-13.69-13.114-21.137.996-8.21 5.924-14.049 12.394-18.04 7.573-4.404 15.352-6.379 22.594-6.699 9.047-.389 20.535 1.896 28.631 7.11 6.067 3.986 11.284 10.23 11.562 17.489.712 9.815-6.365 21.026-23.221 25.545" stroke="#060" stroke-width="3.657"/><path d="M196.797 84.468l16.979 10.748-2.656-12.785" stroke="#060" stroke-width="3.656"/><path d="M70.305 64.888L57.748 94.077l28.417-23.68" stroke="#000" stroke-width="3.657"/></g><path d="M41.031 106.181c0-3.445-1.758-5.203-5.274-5.203l-14.062-.035c-10.547 0-15.785 4.64-15.715 13.922-.035 9.492 5.273 14.238 15.891 14.168h3.41c3.445.07 5.203 1.23 5.203 3.55-.07 2.391-1.828 3.586-5.309 3.586H10.972c-3.375.035-5.097 1.864-5.097 5.52 0 3.269 1.722 4.886 5.132 4.851l14.239.035c10.406 0 15.644-4.71 15.714-14.062 0-9.211-5.238-13.887-15.714-14.063h-3.411c-3.621 0-5.414-1.125-5.414-3.375 0-2.39 1.793-3.585 5.379-3.585h14.098c3.34-.071 5.062-1.829 5.133-5.309zm22.886 35.051v-35.051c0-3.445-1.758-5.238-5.274-5.309l-5.273.071c-3.516.07-5.273 1.898-5.273 5.449-.035 3.41 1.687 5.098 5.273 5.098v29.742c0 3.586 1.758 5.343 5.344 5.343 3.445 0 5.203-1.757 5.203-5.343zm7.137-34.981v49.253c0 3.481 1.757 5.238 5.273 5.238s5.273-1.792 5.273-5.378v-8.789h12.375c10.547 0 15.821-5.378 15.821-16.171v-13.676c0-10.547-5.309-15.856-15.891-15.856H76.257c-3.481 0-5.203 1.793-5.203 5.379zm22.851 5.239c3.551 0 5.344 1.722 5.344 5.097v14.028c0 3.621-1.793 5.414-5.344 5.414H81.6V111.49h12.305zm30.023-6.997c1.125 0 2.25.317 3.375.915 1.125.597 1.969 1.441 2.602 2.566.632 1.125.949 2.32.949 3.516 0 1.195-.317 2.355-.914 3.445-.633 1.125-1.477 1.969-2.602 2.566-1.125.633-2.25.914-3.41.914-1.23 0-2.391-.281-3.48-.914-1.125-.597-1.969-1.441-2.602-2.566a6.748 6.748 0 0 1-.914-3.445c0-1.196.281-2.391.914-3.516s1.477-1.969 2.602-2.566c1.125-.598 2.285-.915 3.48-.915zm0 28.09c1.125 0 2.25.317 3.375.914 1.125.598 1.969 1.442 2.602 2.567.632 1.125.949 2.32.949 3.515 0 1.196-.317 2.321-.914 3.446-.633 1.125-1.477 1.968-2.602 2.566-1.125.633-2.25.914-3.41.914-1.23 0-2.391-.281-3.48-.914-1.125-.598-1.969-1.441-2.602-2.566a6.84 6.84 0 0 1-.914-3.446c0-1.195.281-2.39.914-3.515s1.477-1.969 2.602-2.567c1.125-.597 2.285-.914 3.48-.914z" stroke-miterlimit="79.84" font-size="16" font-family="Times New Roman"/><path d="M193.761 147.77c3.586-.07 5.379-1.827 5.379-5.308v-35.051c0-3.55-1.758-5.343-5.203-5.343-3.586 0-5.344 1.793-5.344 5.343v29.743h-8.718c-3.586 0-5.344-1.793-5.344-5.414v-24.399c0-3.551-1.758-5.344-5.274-5.344-3.515 0-5.273 1.758-5.273 5.274l.07 29.883H155.3c-3.586 0-5.379-1.793-5.379-5.414v-24.399c0-3.551-1.757-5.344-5.273-5.344s-5.273 1.758-5.273 5.274v24.258c0 10.793 5.273 16.171 15.82 16.171l38.566.07zm28.23-5.413v-35.051c0-3.445-1.758-5.238-5.274-5.309l-5.273.071c-3.516.07-5.273 1.898-5.273 5.449-.035 3.41 1.687 5.098 5.273 5.098v29.742c0 3.586 1.758 5.343 5.344 5.343 3.445 0 5.203-1.757 5.203-5.343zm42.293-35.051c0-3.445-1.758-5.203-5.274-5.203l-14.062-.035c-10.547 0-15.785 4.64-15.715 13.922-.035 9.492 5.273 14.238 15.891 14.168h3.41c3.445.07 5.203 1.23 5.203 3.55-.07 2.391-1.828 3.586-5.309 3.586h-14.203c-3.375.035-5.097 1.864-5.097 5.52 0 3.269 1.722 4.886 5.132 4.851l14.239.035c10.406 0 15.644-4.71 15.714-14.062 0-9.211-5.238-13.887-15.714-14.063h-3.411c-3.621 0-5.414-1.125-5.414-3.375 0-2.39 1.793-3.585 5.379-3.585h14.098c3.34-.071 5.062-1.829 5.133-5.309zm45.808 35.262c0-3.516-1.723-5.309-5.168-5.309l-17.649-.035c-3.586 0-5.379-1.793-5.379-5.379v-1.758l15.891-.035c3.516 0 5.238-1.687 5.238-5.133 0-3.586-1.793-5.379-5.343-5.449l-15.786.07v-7.031l22.782.035c3.55-.07 5.343-1.793 5.379-5.238 0-3.516-1.864-5.238-5.52-5.238h-27.914c-3.516 0-5.273 1.757-5.273 5.273v24.258c0 10.793 5.273 16.171 15.82 16.171h17.648c3.516 0 5.274-1.722 5.274-5.202z" stroke-miterlimit="79.84" fill="#060" font-size="16" font-family="Times New Roman"/><path d="M148.588 173.146h-1.48l-.18-1.5-.06-.02c-.373.533-.877.95-1.51 1.25-.633.3-1.34.45-2.12.45-1.16 0-2.077-.32-2.75-.96-.667-.64-1-1.623-1-2.95 0-1.173.37-2.087 1.11-2.74.747-.647 1.837-.97 3.27-.97a8.38 8.38 0 0 1 2.81.47v-1.21c0-.94-.22-1.61-.66-2.01-.447-.393-1.177-.59-2.19-.59-1.24 0-2.38.247-3.42.74l-.18-1.62c1.16-.533 2.47-.8 3.93-.8 1.6 0 2.737.353 3.41 1.06.68.713 1.02 1.883 1.02 3.51v7.89zm-1.93-3.46v-2.12c-.507-.3-1.32-.45-2.44-.45-1.94 0-2.91.76-2.91 2.28 0 1.56.82 2.34 2.46 2.34a3.33 3.33 0 0 0 2.01-.64c.587-.427.88-.897.88-1.41zm14.637-4.62v8.08h-1.92v-8.08c0-1.707-.924-2.56-2.77-2.56-.547 0-1.09.123-1.63.37-.54.247-.947.58-1.22 1v9.27h-1.95v-12.18l1.4-.1.32 1.29h.07c.886-.967 2.066-1.45 3.54-1.45 1.313 0 2.336.367 3.07 1.1.726.74 1.09 1.827 1.09 3.26zm21.88 8.08h-2.36l-1.23-3.67h-6.77l-1.23 3.67h-2.25l5.66-15.38h2.5l5.68 15.38zm-6.89-13.84h-.06l-.52 1.6-2.27 6.75h5.55l-2.23-6.75-.47-1.6zm11.355-1.54v13.41h7.15l-.06 1.97h-9.2v-15.38h2.11zm11.727 8.27v5.2h7.77l-.061 1.91h-9.799v-15.38h9.45l.059 1.93h-7.419v4.57h6.349v1.77h-6.349zm26.381-7.81l-.26 1.88c-.92-.42-1.993-.63-3.22-.63-1.653 0-2.837.433-3.55 1.3-.713.867-1.07 2.38-1.07 4.54 0 2.307.36 3.917 1.08 4.83.72.907 1.92 1.36 3.6 1.36 1.16 0 2.233-.247 3.22-.74l.26 1.77a8.12 8.12 0 0 1-3.75.9c-2.28 0-3.953-.653-5.02-1.96-1.067-1.307-1.6-3.36-1.6-6.16 0-2.653.543-4.617 1.63-5.89 1.087-1.28 2.783-1.92 5.09-1.92 1.353 0 2.55.24 3.59.72zm11.141 3.98c.827.993 1.24 2.617 1.24 4.87s-.413 3.873-1.24 4.86c-.827.987-2.163 1.48-4.01 1.48-1.853 0-3.203-.497-4.05-1.49-.853-.993-1.28-2.61-1.28-4.85 0-2.24.43-3.86 1.29-4.86.853-.993 2.2-1.49 4.04-1.49 1.847 0 3.183.493 4.01 1.48zm-6.58 1.22c-.5.7-.75 1.917-.75 3.65 0 1.74.25 2.957.75 3.65.5.7 1.357 1.05 2.57 1.05 1.193 0 2.037-.35 2.53-1.05.487-.693.73-1.91.73-3.65 0-1.733-.243-2.95-.73-3.65-.493-.693-1.337-1.04-2.53-1.04-1.213 0-2.07.347-2.57 1.04zm26.278 1.58v8.14h-1.93v-8.12c0-1.667-.847-2.5-2.54-2.5-.7 0-1.28.2-1.74.6-.454.393-.68.96-.68 1.7v8.32h-1.93v-8.32c0-.793-.22-1.38-.66-1.76-.434-.373-1.014-.56-1.74-.56a3.06 3.06 0 0 0-1.48.38c-.474.253-.834.583-1.08.99v9.27h-1.95v-12.18l1.4-.1.34 1.31h.07c.773-.953 1.823-1.43 3.15-1.43 1.626 0 2.726.62 3.3 1.86h.04c.686-1.253 1.836-1.88 3.45-1.88 1.213 0 2.18.36 2.9 1.08.72.727 1.08 1.793 1.08 3.2zm13.322 2.01c0 4.24-1.594 6.36-4.78 6.36-1.474 0-2.58-.447-3.32-1.34l-.04.02.02 1.66v2.46h-1.99v-15.19l1.4-.1.41 1.27c.926-.953 2.133-1.43 3.62-1.43 1.573 0 2.746.477 3.52 1.43.773.96 1.16 2.58 1.16 4.86zm-2.011 0c0-1.693-.253-2.87-.759-3.53-.507-.653-1.3-.98-2.38-.98-1.327 0-2.317.48-2.97 1.44v6.27c.586.993 1.543 1.49 2.87 1.49 1.053 0 1.856-.34 2.41-1.02.553-.687.829-1.91.829-3.67zm13.243 6.13h-1.48l-.18-1.5-.06-.02c-.373.533-.877.95-1.51 1.25-.633.3-1.34.45-2.12.45-1.16 0-2.077-.32-2.75-.96-.667-.64-1-1.623-1-2.95 0-1.173.37-2.087 1.11-2.74.747-.647 1.837-.97 3.27-.97a8.38 8.38 0 0 1 2.81.47v-1.21c0-.94-.22-1.61-.66-2.01-.447-.393-1.177-.59-2.19-.59-1.24 0-2.38.247-3.42.74l-.18-1.62c1.16-.533 2.47-.8 3.93-.8 1.6 0 2.737.353 3.41 1.06.68.713 1.02 1.883 1.02 3.51v7.89zm-1.93-3.46v-2.12c-.507-.3-1.32-.45-2.44-.45-1.94 0-2.91.76-2.91 2.28 0 1.56.82 2.34 2.46 2.34a3.33 3.33 0 0 0 2.01-.64c.587-.427.88-.897.88-1.41zm14.637-4.62v8.08h-1.92v-8.08c0-1.707-.924-2.56-2.77-2.56-.547 0-1.09.123-1.63.37-.54.247-.947.58-1.22 1v9.27h-1.95v-12.18l1.4-.1.32 1.29h.07c.886-.967 2.066-1.45 3.54-1.45 1.313 0 2.336.367 3.07 1.1.726.74 1.09 1.827 1.09 3.26zm5.35 9.84c.493 0 .906-.117 1.24-.35.34-.227.64-.627.9-1.2l.06-.21-5.35-12.22h2.25l3.49 8.88.57 1.54h.06l.45-1.58 2.81-8.84h2.09l-4.45 12.36c-.407 1.107-.914 1.907-1.52 2.4-.614.493-1.37.74-2.27.74-.694 0-1.32-.13-1.88-.39l.18-1.45c.453.213.91.32 1.37.32z" style="white-space:pre"/></svg>